<?xml version="1.0" encoding="UTF-8"?>
<svg id="Calque_1" data-name="Calque 1" xmlns="http://www.w3.org/2000/svg" viewBox="0 0 1920 1080">
  <defs>
    <style>
      .cls-1, .cls-2 {
        fill: #20b2aa;
      }

      .cls-1, .cls-2, .cls-3 {
        stroke: #20b2aa;
        stroke-miterlimit: 10;
        stroke-width: 2px;
      }

      .cls-2 {
        opacity: .36;
      }

      .cls-3 {
        fill: none;
      }
    </style>
  </defs>
  <circle class="cls-1" cx="694.06" cy="265.14" r="16.02"/>
  <circle class="cls-1" cx="701.31" cy="96.45" r="13.63"/>
  <line class="cls-1" x1="831.07" y1="202.84" x2="694.06" y2="265.14"/>
  <line class="cls-1" x1="701.31" y1="96.45" x2="831.07" y2="202.84"/>
  <g>
    <circle class="cls-1" cx="878.13" cy="362.13" r="20.76"/>
    <circle class="cls-1" cx="882.63" cy="46.27" r="16.02"/>
    <circle class="cls-1" cx="830.3" cy="201.36" r="19.37"/>
    <circle class="cls-1" cx="973.37" cy="255.09" r="15.63"/>
    <circle class="cls-1" cx="996.21" cy="116.74" r="21.04"/>
    <line class="cls-1" x1="831.07" y1="202.84" x2="880.08" y2="368.72"/>
    <line class="cls-1" x1="972.76" y1="254.8" x2="828.38" y2="206.49"/>
    <line class="cls-1" x1="996.21" y1="116.74" x2="970.84" y2="259.93"/>
    <line class="cls-1" x1="882.63" y1="46.27" x2="830.3" y2="201.36"/>
    <line class="cls-1" x1="996.21" y1="116.74" x2="882.63" y2="46.27"/>
    <line class="cls-1" x1="970.84" y1="259.93" x2="880.08" y2="368.72"/>
  </g>
  <line class="cls-1" x1="880.08" y1="368.72" x2="694.33" y2="258.73"/>
  <circle class="cls-1" cx="49.03" cy="165.61" r="19.29"/>
  <circle class="cls-1" cx="346.47" cy="67.73" r="19.37"/>
  <circle class="cls-1" cx="224.14" cy="344.41" r="20.56"/>
  <line class="cls-1" x1="346.47" y1="67.73" x2="57.09" y2="166.86"/>
  <line class="cls-3" x1="49.67" y1="161.47" x2="388.7" y2="274.08"/>
  <line class="cls-3" x1="224.14" y1="344.41" x2="389.14" y2="286.56"/>
  <line class="cls-3" x1="399.42" y1="276.06" x2="407.85" y2="275.73"/>
  <line class="cls-3" x1="429.5" y1="274.89" x2="690.78" y2="264.71"/>
  <path class="cls-2" d="m389.14,286.56c3.46,9.92,13.89,15.91,24.42,13.58,11.35-2.52,18.49-13.76,15.98-25.1,0-.05-.02-.1-.04-.15-.7-3.07-2.05-5.84-3.88-8.18-4.83-6.23-12.98-9.47-21.19-7.65-.47.11-.93.23-1.39.37-7.19,2.11-12.48,7.8-14.34,14.65-.88,3.19-1,6.63-.24,10.09.18.82.41,1.61.68,2.39Z"/>
  <line class="cls-3" x1="403.04" y1="259.43" x2="346.47" y2="67.73"/>
  <line class="cls-3" x1="830.3" y1="201.36" x2="346.47" y2="67.73"/>
  <line class="cls-1" x1="224.14" y1="344.41" x2="346.47" y2="67.73"/>
  <line class="cls-1" x1="224.14" y1="344.41" x2="44.13" y2="160.61"/>
  <line class="cls-1" x1="996.21" y1="116.74" x2="831.07" y2="202.84"/>
  <circle class="cls-1" cx="269.57" cy="241.65" r="15.29"/>
  <circle class="cls-1" cx="518.16" cy="194.97" r="12.33"/>
  <line class="cls-3" x1="425.62" y1="266.71" x2="518.16" y2="194.97"/>
  <line class="cls-1" x1="518.16" y1="194.97" x2="352.78" y2="68"/>
  <line class="cls-1" x1="694.06" y1="265.14" x2="518.16" y2="194.97"/>
  <line class="cls-1" x1="831.07" y1="202.84" x2="518.16" y2="194.97"/>
  <line class="cls-1" x1="882.63" y1="46.27" x2="701.31" y2="96.45"/>
  <line class="cls-1" x1="701.31" y1="96.45" x2="518.16" y2="194.97"/>
</svg>